# xmcd
#
# Track frame offsets:
#	150
#	17211
#	35459
#	52170
#	70445
#	90239
#	109305
#	125256
#	142972
#
# Disc length: 2158 seconds
#
# Revision: 0
# Processed by: cddbd v1.5.2PL0 Copyright (c) Steve Scherf et al.
# Submitted via: EasyCDDAExtractor 2011.0.0.0
#
DISCID=7a086c09
DTITLE=Chris Brecht - Dead Flower Motel
DYEAR=2010
DGENRE=Countryrock
TTITLE0=Hollywood
TTITLE1=Wish You
TTITLE2=Don't Take It So Hard
TTITLE3=Streetlights
TTITLE4=You Been Livin'
TTITLE5=Witch's Curse
TTITLE6=Not Where You Are
TTITLE7=Blue Thunder
TTITLE8=Devil
EXTD=
EXTT0=
EXTT1=
EXTT2=
EXTT3=
EXTT4=
EXTT5=
EXTT6=
EXTT7=
EXTT8=
PLAYORDER=
